<svg width="24" height="24" viewBox="0 0 24 24" fill="none" xmlns="http://www.w3.org/2000/svg">
<path d="M15.6001 3H8.39997C5.24992 3 3.8999 4.8 3.8999 7.5V16.5C3.8999 19.2 5.24992 21 8.39997 21H15.6001C18.7501 21 20.1002 19.2 20.1002 16.5V7.5C20.1002 4.8 18.7501 3 15.6001 3ZM8.39997 12.225H12C12.369 12.225 12.675 12.531 12.675 12.9C12.675 13.269 12.369 13.575 12 13.575H8.39997C8.03097 13.575 7.72496 13.269 7.72496 12.9C7.72496 12.531 8.03097 12.225 8.39997 12.225ZM15.6001 17.175H8.39997C8.03097 17.175 7.72496 16.869 7.72496 16.5C7.72496 16.131 8.03097 15.825 8.39997 15.825H15.6001C15.9691 15.825 16.2751 16.131 16.2751 16.5C16.2751 16.869 15.9691 17.175 15.6001 17.175ZM17.8501 9.525H16.0501C14.6821 9.525 13.5751 8.418 13.5751 7.05V5.25C13.5751 4.881 13.8811 4.575 14.2501 4.575C14.6191 4.575 14.9251 4.881 14.9251 5.25V7.05C14.9251 7.671 15.4291 8.175 16.0501 8.175H17.8501C18.2191 8.175 18.5251 8.481 18.5251 8.85C18.5251 9.219 18.2191 9.525 17.8501 9.525Z" fill="#673AB7"/>
</svg>
