<svg width="28" height="28" viewBox="0 0 28 28" fill="none" xmlns="http://www.w3.org/2000/svg">
<path d="M14 26C20.6 26 26 20.6 26 14C26 7.4 20.6 2 14 2C7.4 2 2 7.4 2 14C2 20.6 7.4 26 14 26Z" fill="#319997" fill-opacity="0.24" stroke="#319997" stroke-width="1.8" stroke-linecap="round" stroke-linejoin="round"/>
<rect x="8" y="8" width="12" height="12" rx="3" fill="#319997"/>
<path fill-rule="evenodd" clip-rule="evenodd" d="M10.55 12.875C10.3843 12.875 10.25 13.0093 10.25 13.175V14.825C10.25 14.9907 10.3843 15.125 10.55 15.125H12.575C12.7407 15.125 12.875 15.2593 12.875 15.425V17.45C12.875 17.6157 13.0093 17.75 13.175 17.75H14.825C14.9907 17.75 15.125 17.6157 15.125 17.45V15.425C15.125 15.2593 15.2593 15.125 15.425 15.125H17.45C17.6157 15.125 17.75 14.9907 17.75 14.825V13.175C17.75 13.0093 17.6157 12.875 17.45 12.875H15.425C15.2593 12.875 15.125 12.7407 15.125 12.575V10.55C15.125 10.3843 14.9907 10.25 14.825 10.25H13.175C13.0093 10.25 12.875 10.3843 12.875 10.55V12.575C12.875 12.7407 12.7407 12.875 12.575 12.875H10.55Z" fill="#CEE7E6"/>
</svg>
