<svg width="28" height="28" viewBox="0 0 28 28" fill="none" xmlns="http://www.w3.org/2000/svg">
<path d="M14 26C20.6 26 26 20.6 26 14C26 7.4 20.6 2 14 2C7.4 2 2 7.4 2 14C2 20.6 7.4 26 14 26Z" fill="#673AB7" fill-opacity="0.24" stroke="#673AB7" stroke-width="1.8" stroke-linecap="round" stroke-linejoin="round"/>
<path d="M16.4001 8H11.6C9.49999 8 8.59998 9.2 8.59998 11V17C8.59998 18.8 9.49999 20 11.6 20H16.4001C18.5001 20 19.4001 18.8 19.4001 17V11C19.4001 9.2 18.5001 8 16.4001 8ZM11.6 14.15H14C14.246 14.15 14.45 14.354 14.45 14.6C14.45 14.846 14.246 15.05 14 15.05H11.6C11.354 15.05 11.15 14.846 11.15 14.6C11.15 14.354 11.354 14.15 11.6 14.15ZM16.4001 17.45H11.6C11.354 17.45 11.15 17.246 11.15 17C11.15 16.754 11.354 16.55 11.6 16.55H16.4001C16.6461 16.55 16.8501 16.754 16.8501 17C16.8501 17.246 16.6461 17.45 16.4001 17.45ZM17.9001 12.35H16.7001C15.7881 12.35 15.05 11.612 15.05 10.7V9.5C15.05 9.254 15.254 9.05 15.5 9.05C15.7461 9.05 15.9501 9.254 15.9501 9.5V10.7C15.9501 11.114 16.2861 11.45 16.7001 11.45H17.9001C18.1461 11.45 18.3501 11.654 18.3501 11.9C18.3501 12.146 18.1461 12.35 17.9001 12.35Z" fill="#673AB7"/>
</svg>
