<svg width="64" height="64" viewBox="0 0 64 64" fill="none" xmlns="http://www.w3.org/2000/svg">
<rect width="64" height="64" rx="20" fill="#2B86C4"/>
<path d="M35.2889 11.0726C32.8439 10.5526 32.3239 12.9976 32.3239 12.9976L28.4527 27.4588C27.9079 27.49 27.364 27.5346 26.8214 27.5926L24.2452 14.4526C24.2452 14.4526 24.0102 11.9638 21.5202 12.1976C19.0314 12.4326 19.2664 14.9213 19.2664 14.9213L21.9852 29.8888H32.2727C32.5327 29.8888 32.7864 29.9163 33.0314 29.9663L37.2139 14.0376C37.2139 14.0376 37.7339 11.5913 35.2889 11.0726Z" fill="#FFAC30"/>
<path d="M46.0227 34.9925C46.0229 35.3072 45.961 35.6187 45.8408 35.9095C45.7205 36.2002 45.5441 36.4643 45.3217 36.6869C45.0993 36.9094 44.8352 37.0859 44.5445 37.2064C44.2539 37.3268 43.9423 37.3888 43.6277 37.3888H43.4177C43.1031 37.3888 42.7915 37.3268 42.5009 37.2064C42.2102 37.0859 41.9462 36.9094 41.7237 36.6869C41.5013 36.4643 41.3249 36.2002 41.2047 35.9095C41.0844 35.6187 41.0225 35.3072 41.0227 34.9925V29.785C41.0227 28.4613 42.094 27.3888 43.4177 27.3888H43.6277C43.9423 27.3888 44.2539 27.4508 44.5445 27.5712C44.8352 27.6917 45.0993 27.8682 45.3217 28.0907C45.5441 28.3132 45.7205 28.5774 45.8408 28.8681C45.961 29.1589 46.0229 29.4704 46.0227 29.785V34.9925Z" fill="#FFAC30"/>
<path d="M37.2727 24.8888C36.6097 24.8888 35.9738 25.1522 35.5049 25.621C35.0361 26.0899 34.7727 26.7258 34.7727 27.3888V30.8613C35.534 31.5475 36.0227 32.5313 36.0227 33.6388C36.0227 34.58 35.664 35.43 35.0915 36.0875C35.305 36.48 35.6202 36.8079 36.0039 37.0368C36.3876 37.2658 36.8259 37.3873 37.2727 37.3888C37.9357 37.3888 38.5716 37.1254 39.0405 36.6566C39.5093 36.1877 39.7727 35.5518 39.7727 34.8888V27.3888C39.7727 26.7258 39.5093 26.0899 39.0405 25.621C38.5716 25.1522 37.9357 24.8888 37.2727 24.8888Z" fill="#FFAC30"/>
<path d="M43.6015 38.6388H43.4452C42.8377 38.6389 42.2398 38.488 41.7052 38.1995C41.1706 37.911 40.7161 37.4941 40.3827 36.9863C40.2261 37.2123 40.0455 37.4206 39.844 37.6075C39.7827 37.665 39.7165 37.7138 39.6502 37.7675C39.4279 37.9514 39.1856 38.1095 38.9277 38.2388C38.7519 38.3246 38.5697 38.3965 38.3827 38.4538C38.299 38.4788 38.219 38.51 38.1327 38.53C37.8517 38.5999 37.5635 38.6364 37.274 38.6388C36.9777 38.6388 36.6977 38.5938 36.4227 38.5275C36.3277 38.5063 36.2365 38.475 36.144 38.445C35.9748 38.3899 35.8098 38.3226 35.6502 38.2438C35.5477 38.1938 35.4465 38.1475 35.349 38.0888C34.8511 37.7879 34.428 37.3781 34.1115 36.89L34.1152 36.8863C33.864 37.03 33.5227 37.3888 32.2727 37.3888H29.1015C31.3627 39.095 32.8977 42.3763 32.8977 46.1388C32.8977 46.3046 32.8319 46.4635 32.7147 46.5807C32.5974 46.6979 32.4385 46.7638 32.2727 46.7638C32.1069 46.7638 31.948 46.6979 31.8308 46.5807C31.7136 46.4635 31.6477 46.3046 31.6477 46.1388C31.6477 41.315 28.914 37.3888 25.554 37.3888H25.3977C25.2319 37.3888 25.073 37.3229 24.9558 37.2057C24.8386 37.0885 24.7727 36.9296 24.7727 36.7638C24.7727 36.598 24.8386 36.4391 24.9558 36.3219C25.073 36.2046 25.2319 36.1388 25.3977 36.1388H32.2727C32.9358 36.1388 33.5716 35.8754 34.0405 35.4066C34.5093 34.9377 34.7727 34.3018 34.7727 33.6388C34.7727 32.9758 34.5093 32.3399 34.0405 31.871C33.5716 31.4022 32.9358 31.1388 32.2727 31.1388H22.274C22.2327 31.1388 22.1952 31.1488 22.1552 31.1513C21.8236 31.1657 21.4984 31.2469 21.199 31.39C21.0568 31.4607 20.9205 31.5426 20.7915 31.635C20.6652 31.7307 20.5473 31.8369 20.439 31.9525C20.3285 32.0714 20.2305 32.2012 20.1465 32.34C20.0606 32.4835 19.9882 32.6345 19.9302 32.7913C19.9165 32.8313 19.8952 32.8663 19.8815 32.9075L18.524 37.3888C18.3952 37.8075 17.9252 39.7275 18.0102 40.1275C18.0102 46.1388 23.8802 52.3888 31.0227 52.3888C39.1952 52.3888 45.8277 45.85 46.0065 37.7213C45.343 38.3093 44.488 38.6355 43.6015 38.6388Z" fill="#FFAC30"/>
</svg>
