<svg width="29" height="42" viewBox="0 0 29 42" fill="none" xmlns="http://www.w3.org/2000/svg">
<path d="M17.2892 0.0725589C14.8442 -0.447441 14.3242 1.99756 14.3242 1.99756L10.4529 16.4588C9.90816 16.49 9.36424 16.5346 8.82167 16.5926L6.24542 3.45256C6.24542 3.45256 6.01042 0.963808 3.52042 1.19756C1.03167 1.43256 1.26667 3.92131 1.26667 3.92131L3.98542 18.8888H14.2729C14.5329 18.8888 14.7867 18.9163 15.0317 18.9663L19.2142 3.03756C19.2142 3.03756 19.7342 0.591309 17.2892 0.0725589Z" fill="#FFAC30"/>
<path d="M28.0229 23.9925C28.0231 24.3072 27.9613 24.6187 27.841 24.9095C27.7207 25.2002 27.5443 25.4643 27.3219 25.6869C27.0995 25.9094 26.8354 26.0859 26.5448 26.2064C26.2541 26.3268 25.9426 26.3888 25.6279 26.3888H25.4179C25.1033 26.3888 24.7918 26.3268 24.5011 26.2064C24.2105 26.0859 23.9464 25.9094 23.724 25.6869C23.5016 25.4643 23.3252 25.2002 23.2049 24.9095C23.0846 24.6187 23.0228 24.3072 23.0229 23.9925V18.785C23.0229 17.4613 24.0942 16.3888 25.4179 16.3888H25.6279C25.9426 16.3888 26.2541 16.4508 26.5448 16.5712C26.8354 16.6917 27.0995 16.8682 27.3219 17.0907C27.5443 17.3132 27.7207 17.5774 27.841 17.8681C27.9613 18.1589 28.0231 18.4704 28.0229 18.785V23.9925Z" fill="#FFAC30"/>
<path d="M19.2729 13.8888C18.6099 13.8888 17.974 14.1522 17.5052 14.621C17.0363 15.0899 16.7729 15.7258 16.7729 16.3888V19.8613C17.5342 20.5475 18.0229 21.5313 18.0229 22.6388C18.0229 23.58 17.6642 24.43 17.0917 25.0875C17.3053 25.48 17.6204 25.8079 18.0041 26.0368C18.3879 26.2658 18.8261 26.3873 19.2729 26.3888C19.936 26.3888 20.5719 26.1254 21.0407 25.6566C21.5096 25.1877 21.7729 24.5518 21.7729 23.8888V16.3888C21.7729 15.7258 21.5096 15.0899 21.0407 14.621C20.5719 14.1522 19.936 13.8888 19.2729 13.8888Z" fill="#FFAC30"/>
<path d="M25.6015 27.6388H25.4452C24.8377 27.6389 24.2398 27.488 23.7052 27.1995C23.1706 26.911 22.7161 26.4941 22.3827 25.9863C22.2261 26.2123 22.0455 26.4206 21.844 26.6075C21.7827 26.665 21.7165 26.7138 21.6502 26.7675C21.4279 26.9514 21.1856 27.1095 20.9277 27.2388C20.7519 27.3246 20.5697 27.3965 20.3827 27.4538C20.299 27.4788 20.219 27.51 20.1327 27.53C19.8517 27.5999 19.5635 27.6364 19.274 27.6388C18.9777 27.6388 18.6977 27.5938 18.4227 27.5275C18.3277 27.5063 18.2365 27.475 18.144 27.445C17.9748 27.3899 17.8098 27.3226 17.6502 27.2438C17.5477 27.1938 17.4465 27.1475 17.349 27.0888C16.8511 26.7879 16.428 26.3781 16.1115 25.89L16.1152 25.8863C15.864 26.03 15.5227 26.3888 14.2727 26.3888H11.1015C13.3627 28.095 14.8977 31.3763 14.8977 35.1388C14.8977 35.3046 14.8319 35.4635 14.7146 35.5807C14.5974 35.6979 14.4385 35.7638 14.2727 35.7638C14.1069 35.7638 13.948 35.6979 13.8308 35.5807C13.7136 35.4635 13.6477 35.3046 13.6477 35.1388C13.6477 30.315 10.914 26.3888 7.55396 26.3888H7.39771C7.23195 26.3888 7.07298 26.3229 6.95577 26.2057C6.83856 26.0885 6.77271 25.9296 6.77271 25.7638C6.77271 25.598 6.83856 25.4391 6.95577 25.3219C7.07298 25.2046 7.23195 25.1388 7.39771 25.1388H14.2727C14.9358 25.1388 15.5716 24.8754 16.0405 24.4066C16.5093 23.9377 16.7727 23.3018 16.7727 22.6388C16.7727 21.9758 16.5093 21.3399 16.0405 20.871C15.5716 20.4022 14.9358 20.1388 14.2727 20.1388H4.27396C4.23271 20.1388 4.19521 20.1488 4.15521 20.1513C3.82364 20.1657 3.4984 20.2469 3.19896 20.39C3.0568 20.4607 2.92054 20.5426 2.79146 20.635C2.6652 20.7307 2.54728 20.8369 2.43896 20.9525C2.32848 21.0714 2.23047 21.2012 2.14646 21.34C2.06063 21.4835 1.98823 21.6345 1.93021 21.7913C1.91646 21.8313 1.89521 21.8663 1.88146 21.9075L0.523958 26.3888C0.395208 26.8075 -0.0747913 28.7275 0.0102087 29.1275C0.0102087 35.1388 5.88021 41.3888 13.0227 41.3888C21.1952 41.3888 27.8277 34.85 28.0065 26.7213C27.343 27.3093 26.488 27.6355 25.6015 27.6388Z" fill="#FFAC30"/>
</svg>
