<svg width="24" height="24" viewBox="0 0 24 24" fill="none" xmlns="http://www.w3.org/2000/svg">
<rect x="3" y="3" width="18" height="18" rx="4.5" fill="#319997"/>
<path fill-rule="evenodd" clip-rule="evenodd" d="M6.825 10.3125C6.57647 10.3125 6.375 10.514 6.375 10.7625V13.2375C6.375 13.486 6.57647 13.6875 6.825 13.6875H9.8625C10.111 13.6875 10.3125 13.889 10.3125 14.1375V17.175C10.3125 17.4235 10.514 17.625 10.7625 17.625H13.2375C13.486 17.625 13.6875 17.4235 13.6875 17.175V14.1375C13.6875 13.889 13.889 13.6875 14.1375 13.6875H17.175C17.4235 13.6875 17.625 13.486 17.625 13.2375V10.7625C17.625 10.514 17.4235 10.3125 17.175 10.3125H14.1375C13.889 10.3125 13.6875 10.111 13.6875 9.8625V6.825C13.6875 6.57647 13.486 6.375 13.2375 6.375H10.7625C10.514 6.375 10.3125 6.57647 10.3125 6.825V9.8625C10.3125 10.111 10.111 10.3125 9.8625 10.3125H6.825Z" fill="white"/>
</svg>
